# xmcd
#
# Track frame offsets: 
#        150
#        9646
#        32424
#        50454
#        69125
#        84812
#        104600
#        123937
#        145956
#        164566
#        186625
#        198997
#        216382
#        234762
#        256247
#        273600
#
# Disc length: 3882 seconds
#
# Revision: 8
# Processed by: cddbd v1.5.2PL0 Copyright (c) Steve Scherf et al.
# Submitted via: ExactAudioCopy v0.99pb4
#
DISCID=e00f2810
DTITLE=The Willy DeVille Acoustic Trio - In Berlin
DYEAR=2002
DGENRE=Blues
TTITLE0=St. Peter's Street
TTITLE1=Betty and Dupree
TTITLE2=It's Too Late She's Gone
TTITLE3=Spanish Harlem
TTITLE4=Trouble in Mind
TTITLE5=Storybook Love
TTITLE6=Big Blue Diamond
TTITLE7=Shake Sugaree
TTITLE8=Let It Be Me
TTITLE9=That Is the Way to Make a Broken Heart
TTITLE10=Hound Dog
TTITLE11=Junker's Blues
TTITLE12=You Better Move On
TTITLE13=Night Falls
TTITLE14=I Met You Baby
TTITLE15=Heaven Stood Still
EXTD=YEAR: 2002
EXTT0=
EXTT1=
EXTT2=
EXTT3=
EXTT4=
EXTT5=
EXTT6=
EXTT7=
EXTT8=
EXTT9=
EXTT10=
EXTT11=
EXTT12=
EXTT13=
EXTT14=
EXTT15=
PLAYORDER=
